<svg version="1.1" viewBox="0.0 0.0 377.9527559055118 377.9527559055118" fill="none" stroke="none" stroke-linecap="square" stroke-miterlimit="10" xmlns:xlink="http://www.w3.org/1999/xlink" xmlns="http://www.w3.org/2000/svg"><clipPath id="p.0"><path d="m0 0l377.95276 0l0 377.95276l-377.95276 0l0 -377.95276z" clip-rule="nonzero"/></clipPath><g clip-path="url(#p.0)"><path fill="#ffffff" d="m0 0l377.95276 0l0 377.95276l-377.95276 0z" fill-rule="evenodd"/><path fill="#5067fb" d="m-2.808399E-4 -4.7244093E-6l377.95276 0l0 377.95276l-377.95276 0z" fill-rule="evenodd"/><path fill="#ffffff" d="m58.97988 141.83574q-5.859375 0 -5.859375 -3.71875l0 -111.203125q0 -1.859375 1.53125 -2.71875q1.53125 -0.875 4.46875 -0.875l25.328125 0q13.328125 0 22.265625 2.9375q8.9375 2.921875 13.53125 9.328125q4.59375 6.390625 4.59375 16.921875q0 10.265625 -3.875 17.406246q-3.859375 7.125 -10.125 11.671875q-6.265625 4.53125 -13.734375 7.125q-7.453125 2.59375 -14.796875 3.796875q-4.921875 0.671875 -9.46875 1.015625q-4.53125 0.328125 -7.984375 0.328125l0 44.265633q0 1.859375 -1.46875 2.78125q-1.46875 0.9375 -4.40625 0.9375zm5.875 -58.531258q2.53125 0 5.390625 -0.125q2.875 -0.140625 5.9375 -0.46875q3.0625 -0.328125 6.125 -0.734375q7.609375 -1.328125 14.609375 -4.53125q7.0 -3.203125 11.453125 -9.203125q4.46875 -5.999996 4.46875 -15.593746q0 -6.796875 -3.203125 -10.859375q-3.1875 -4.078125 -9.53125 -5.9375q-6.328125 -1.875 -15.65625 -1.875l-19.59375 0l0 49.32812zm92.126625 58.937508q-2.9375 0 -5.609375 -0.9375q-2.65625 -0.921875 -4.65625 -2.984375q-2.0 -2.078125 -3.140625 -5.734375q-1.125 -3.671875 -1.125 -9.140633l0 -98.671875q0 -1.71875 1.390625 -2.578125q1.40625 -0.875 4.203125 -0.875q2.9375 0 4.390625 0.875q1.46875 0.859375 1.46875 2.578125l0 97.46875q0 5.59375 1.265625 7.7968826q1.28125 2.203125 4.34375 2.203125q1.859375 0 2.796875 1.53125q0.9375 1.53125 0.734375 3.46875q-0.203125 1.9375 -1.671875 3.46875q-1.46875 1.53125 -4.390625 1.53125zm-0.53125 0q-1.875 0 -2.734375 -1.53125q-0.875 -1.53125 -0.671875 -3.46875q0.203125 -1.9375 1.671875 -3.46875q1.46875 -1.53125 4.265625 -1.53125q2.796875 0 5.671875 -1.53125q2.859375 -1.53125 5.59375 -4.8593826q2.734375 -3.34375 5.328125 -8.8125q2.609375 -5.46875 5.0 -13.328125q0.53125 -2.0 2.265625 -2.328125q1.734375 -0.34375 3.203125 0.53125q1.46875 0.859375 1.0625 2.859375q-2.0 9.46875 -4.9375 16.546875q-2.921875 7.0625076 -6.734375 11.656258q-3.796875 4.59375 -8.515625 6.9375q-4.734375 2.328125 -10.46875 2.328125zm46.264084 0q-6.9375 0 -12.078125 -3.796875q-5.125 -3.796875 -8.0 -11.000008q-2.859375 -7.203125 -2.859375 -17.59375q0 -6.9375 1.265625 -12.9375q1.265625 -6.0 3.734375 -10.859375q2.46875 -4.875 6.125 -8.265625q3.671875 -3.40625 8.40625 -5.203125q4.734375 -1.8125 10.59375 -1.8125q5.734375 0 10.9375 1.734375q5.203125 1.734375 10.40625 5.46875l0 10.53125q-5.46875 -4.265625 -10.46875 -5.796875q-5.0 -1.53125 -9.265625 -1.53125q-3.734375 0 -6.875 1.203125q-3.125 1.203125 -5.53125 3.53125q-2.390625 2.328125 -4.0625 5.734375q-1.671875 3.390625 -2.546875 7.859375q-0.859375 4.46875 -0.859375 10.0625q0 6.40625 1.265625 11.40625q1.28125 5.0 4.140625 7.7968826q2.859375 2.796875 7.53125 2.796875q5.328125 0 10.0625 -5.3281326q4.734375 -5.328125 8.328125 -15.0q3.609375 -9.671875 5.203125 -23.0l2.671875 9.734375q-0.9375 14.40625 -5.0 24.28125q-4.0625 9.859383 -10.140625 14.921883q-6.0625 5.0625 -12.984375 5.0625zm38.390625 0q-3.0625 0 -5.734375 -0.9375q-2.65625 -0.921875 -4.59375 -2.984375q-1.9375 -2.078125 -3.140625 -5.734375q-1.1875 -3.671875 -1.1875 -9.140633l0 -48.53125q0 -1.875 1.453125 -2.734375q1.46875 -0.859375 4.265625 -0.859375q2.9375 0 4.328125 0.859375q1.40625 0.859375 1.40625 2.59375l0 47.46875q0 5.59375 1.265625 7.7968826q1.265625 2.203125 4.46875 2.203125q1.609375 0 2.46875 1.53125q0.875 1.53125 0.59375 3.46875q-0.265625 1.9375 -1.59375 3.46875q-1.328125 1.53125 -4.0 1.53125zm0.010421753 0q-1.875 0 -2.734375 -1.53125q-0.875 -1.53125 -0.671875 -3.46875q0.203125 -1.9375 1.671875 -3.46875q1.46875 -1.53125 4.265625 -1.53125q3.0625 0 6.265625 -2.328125q3.203125 -2.3437576 6.65625 -7.7968826q3.46875 -5.46875 7.265625 -14.734375q3.8125 -9.265625 8.078125 -23.265625q0.65625 -1.734375 2.390625 -1.9375q1.734375 -0.203125 3.140625 0.9375q1.40625 1.125 1.0 2.859375q-4.0 15.328125 -7.9375 26.0q-3.921875 10.671875 -8.265625 17.343758q-4.328125 6.65625 -9.53125 9.796875q-5.203125 3.125 -11.59375 3.125zm48.777985 0q-5.59375 0 -10.0625 -2.140625q-4.46875 -2.125 -7.0 -7.046875q-2.53125 -4.9375 -2.53125 -13.078133l0 -45.203125q0 -1.734375 1.390625 -2.59375q1.40625 -0.859375 4.203125 -0.859375q2.9375 0 4.40625 0.859375q1.46875 0.859375 1.46875 2.59375l0 44.140625q0 4.390625 1.0 7.265625q1.0 2.8593826 3.125 4.2656326q2.140625 1.390625 5.609375 1.390625q4.390625 0 8.1875 -2.859375q3.8125 -2.8593826 6.8125 -8.125008q3.0 -5.28125 5.265625 -12.46875q2.265625 -7.203125 3.59375 -15.609375l0 -18.0q0 -1.734375 1.390625 -2.59375q1.40625 -0.859375 4.34375 -0.859375q2.9375 0 4.40625 0.859375q1.46875 0.859375 1.46875 2.59375l0 85.60938q0 10.65625 -3.0 17.859375q-3.0 7.203125 -9.0 10.734375q-6.0 3.53125 -14.8125 3.53125q-5.328125 0 -10.390625 -1.53125q-5.0625 -1.53125 -9.140625 -4.0q-4.0625 -2.46875 -6.734375 -5.140625q-1.453125 -1.734375 -1.53125 -3.53125q-0.0625 -1.796875 2.34375 -3.796875q2.125 -1.59375 3.453125 -1.671875q1.34375 -0.0625 3.46875 1.546875q4.9375 4.0 9.203125 5.859375q4.265625 1.859375 9.609375 1.859375q5.59375 0 8.859375 -2.203125q3.265625 -2.1875 4.65625 -7.0625q1.40625 -4.859375 1.40625 -12.859375l0 -41.328133q-2.265625 6.390625 -5.328125 10.937508q-3.0625 4.53125 -6.46875 7.265625q-3.40625 2.71875 -6.9375 4.046875q-3.53125 1.34375 -6.734375 1.34375z" fill-rule="nonzero"/><path fill="#ffffff" d="m85.976685 351.97638q-2.9375 0 -4.34375 -0.875q-1.390625 -0.859375 -1.390625 -2.59375l0 -113.734375q0 -1.734375 1.390625 -2.59375q1.40625 -0.859375 4.34375 -0.859375q2.796875 0 4.265625 0.859375q1.46875 0.859375 1.46875 2.59375l0 15.34375q3.0625 -7.203125 6.734375 -11.40625q3.671875 -4.203125 7.9375 -6.0625q4.265625 -1.875 8.796875 -1.875q10.671875 0 16.859375 8.40625q6.203125 8.40625 6.203125 24.0q0 6.9375 -1.265625 12.9375q-1.265625 6.0 -3.796875 10.796875q-2.53125 4.796875 -6.34375 8.203125q-3.796875 3.390625 -8.796875 5.25q-5.0 1.875 -11.265625 1.875q-3.734375 0 -7.53125 -1.0q-3.796875 -1.0 -7.53125 -3.0l0 50.265625q0 1.734375 -1.46875 2.59375q-1.46875 0.875 -4.265625 0.875zm5.734375 -64.140625q4.0 2.40625 7.796875 3.34375q3.8125 0.9375 6.875 0.9375q3.859375 0 6.984375 -1.203125q3.140625 -1.203125 5.53125 -3.53125q2.40625 -2.34375 4.078125 -5.875q1.671875 -3.53125 2.53125 -8.0625q0.875 -4.53125 0.875 -10.0q0 -6.140625 -1.265625 -11.140625q-1.265625 -5.0 -4.140625 -7.921875q-2.859375 -2.9375 -7.671875 -2.9375q-4.390625 0 -8.46875 2.9375q-4.0625 2.921875 -7.390625 9.59375q-3.328125 6.671875 -5.734375 18.0l0 15.859375zm82.53964 14.40625q-2.9375 0 -5.609375 -0.9375q-2.671875 -0.921875 -4.671875 -2.984375q-2.0 -2.078125 -3.140625 -5.734375q-1.125 -3.671875 -1.125 -9.140625l0 -48.671875q0 -1.734375 1.40625 -2.59375q1.40625 -0.859375 4.203125 -0.859375q2.9375 0 4.390625 0.859375q1.46875 0.859375 1.46875 2.59375l0 47.46875q0 5.59375 1.265625 7.796875q1.265625 2.203125 4.34375 2.203125q1.859375 0 2.796875 1.53125q0.9375 1.53125 0.734375 3.46875q-0.203125 1.9375 -1.671875 3.46875q-1.46875 1.53125 -4.390625 1.53125zm-9.34375 -91.46875q-3.734375 0 -5.609375 -2.0625q-1.859375 -2.0625 -1.859375 -6.203125q0 -4.265625 1.859375 -6.390625q1.875 -2.140625 5.609375 -2.140625q3.734375 0 5.53125 2.140625q1.8125 2.125 1.8125 6.390625q0.265625 4.140625 -1.671875 6.203125q-1.9375 2.0625 -5.671875 2.0625zm8.9427185 91.46875q-1.875 0 -2.734375 -1.53125q-0.875 -1.53125 -0.671875 -3.46875q0.203125 -1.9375 1.671875 -3.46875q1.46875 -1.53125 4.265625 -1.53125q3.0625 0 6.265625 -2.328125q3.203125 -2.34375 6.65625 -7.796875q3.46875 -5.46875 7.265625 -14.734375q3.8125 -9.265625 8.078125 -23.265625q0.65625 -1.734375 2.390625 -1.9375q1.734375 -0.203125 3.140625 0.9375q1.40625 1.125 1.0 2.859375q-4.0 15.328125 -7.9375 26.0q-3.921875 10.671875 -8.265625 17.34375q-4.328125 6.65625 -9.53125 9.796875q-5.203125 3.125 -11.59375 3.125zm34.920197 49.734375q-2.9375 0 -4.34375 -0.875q-1.390625 -0.859375 -1.390625 -2.59375l0 -113.734375q0 -1.734375 1.390625 -2.59375q1.40625 -0.859375 4.34375 -0.859375q2.796875 0 4.265625 0.859375q1.46875 0.859375 1.46875 2.59375l0 15.34375q3.0625 -7.203125 6.734375 -11.40625q3.671875 -4.203125 7.9375 -6.0625q4.265625 -1.875 8.796875 -1.875q10.671875 0 16.859375 8.40625q6.203125 8.40625 6.203125 24.0q0 6.9375 -1.265625 12.9375q-1.265625 6.0 -3.796875 10.796875q-2.53125 4.796875 -6.34375 8.203125q-3.796875 3.390625 -8.796875 5.25q-5.0 1.875 -11.265625 1.875q-3.734375 0 -7.53125 -1.0q-3.796875 -1.0 -7.53125 -3.0l0 50.265625q0 1.734375 -1.46875 2.59375q-1.46875 0.875 -4.265625 0.875zm5.734375 -64.140625q4.0 2.40625 7.796875 3.34375q3.8125 0.9375 6.875 0.9375q3.859375 0 6.984375 -1.203125q3.140625 -1.203125 5.53125 -3.53125q2.40625 -2.34375 4.078125 -5.875q1.671875 -3.53125 2.53125 -8.0625q0.875 -4.53125 0.875 -10.0q0 -6.140625 -1.265625 -11.140625q-1.265625 -5.0 -4.140625 -7.921875q-2.859375 -2.9375 -7.671875 -2.9375q-4.390625 0 -8.46875 2.9375q-4.0625 2.921875 -7.390625 9.59375q-3.328125 6.671875 -5.734375 18.0l0 15.859375zm75.59894 16.671875q-4.125 0 -6.203125 -2.203125q-2.0625 -2.1875 -2.0625 -6.46875q0 -4.390625 2.0625 -6.515625q2.078125 -2.140625 6.203125 -2.140625q4.265625 0 6.328125 2.140625q2.078125 2.125 2.078125 6.515625q0 4.28125 -2.078125 6.46875q-2.0625 2.203125 -6.328125 2.203125z" fill-rule="nonzero"/></g></svg>